<svg data-v-decfdd8a="" version="1.0" xmlns="http://www.w3.org/2000/svg" xmlns:xlink="http://www.w3.org/1999/xlink" width="100%" height="100%" viewBox="0 0 340.000000 250.000000" preserveAspectRatio="xMidYMid meet" color-interpolation-filters="sRGB" style="margin: auto;"> <rect data-v-decfdd8a="" x="0" y="0" width="100%" height="100%" fill="#ffffff" fill-opacity="0" class="background"></rect> <!----> <g data-v-decfdd8a="" fill="#0a0619" class="icon-text-wrapper icon-svg-group iconsvg" transform="translate(105.48950958251953,60.48950958251953)"><g fill="#fc3a43" class="iconsvg-imagesvg icon_container" transform="translate(0,0)" mask="url(#43601e43-6d77-4972-85de-228d78700847)"><rect fill="#0a0619" fill-opacity="0" stroke-width="2" x="0" y="0" width="129.020979020979" height="129.020979020979" class="image-rect"></rect> <svg viewBox="0 0 60 67.42860995920569" x="0" y="0" width="129.020979020979" height="129.020979020979" class="image-svg-svg bn" style="overflow: visible;"><g hollow-target="iconBnFill" mask="url(#089a294c-3ddc-48eb-a180-783dd34e93cf)"><g><svg fill="#000000" xmlns="http://www.w3.org/2000/svg" xmlns:xlink="http://www.w3.org/1999/xlink" xml:space="preserve" version="1.1" style="shape-rendering: geometricprecision; text-rendering: geometricprecision; overflow: visible;" viewBox="146 139.5 525 590" x="0" y="0" fill-rule="evenodd" clip-rule="evenodd" width="60" height="67.42860995920569" filtersec="colorsf4096081271" filter="url(#H3jiNtF8zN5u243PYQJSN)"><g transform="scale(1, 1) skewX(0)"><defs><filter id="H3jiNtF8zN5u243PYQJSN"><feColorMatrix type="matrix" values="0 0 0 0 0.984375  0 0 0 0 0.2265625  0 0 0 0 0.26171875  0 0 0 1 0"></feColorMatrix></filter></defs><g><path class="fil0" d="M437 147l206 120c18,10 28,28 28,48l0 239c0,21 -10,38 -28,49l-206 119c-18,10 -39,10 -56,0l-207 -119c-18,-11 -28,-28 -28,-49l0 -239c0,-20 10,-38 28,-48l207 -120c17,-10 38,-10 56,0z"></path></g></g></svg></g> <g filter="url(#colors6655742320)"><svg xmlns="http://www.w3.org/2000/svg" xmlns:xlink="http://www.w3.org/1999/xlink" viewBox="0 0 41.184000000000005 43.2" width="41" height="46.07622" x="9.5" y="10.676194979602844" class="image-svg-letter"><path transform="translate(0 43.2)" d="M13.61-1.44L13.61-14.40L9.14-18.86L5.69-18.86Q5.83-17.93 6.19-16.85L6.19-16.85Q6.48-15.84 7.02-14.65Q7.56-13.46 8.42-12.17L8.42-12.17L4.54-8.28Q1.73-11.88 0.86-15.37Q0-18.86 0-21.60L0-21.60Q0-23.18 0.29-25.09Q0.58-27.00 1.30-29.02Q2.02-31.03 3.28-33.08Q4.54-35.14 6.41-37.01L6.41-37.01Q8.50-39.17 10.73-40.39Q12.96-41.62 14.83-42.26L14.83-42.26Q16.99-42.98 19.08-43.20L19.08-43.20L19.08-26.42L14.26-21.60L19.08-16.70L19.08 0Q18.36-0.07 17.50-0.22L17.50-0.22Q16.78-0.36 15.80-0.65Q14.83-0.94 13.61-1.44L13.61-1.44ZM5.69-24.34L9.14-24.34L13.61-28.80L13.61-35.71Q13.03-35.35 12.46-34.99L12.46-34.99Q11.95-34.63 11.38-34.16Q10.80-33.70 10.22-33.12L10.22-33.12Q8.71-31.61 7.81-30.06Q6.91-28.51 6.48-27.22L6.48-27.22Q5.90-25.70 5.69-24.34L5.69-24.34ZM36.29-21.60L41.18-16.63Q40.61-14.11 39.28-11.45Q37.94-8.78 35.35-6.19L35.35-6.19Q33.19-4.03 30.96-2.81Q28.73-1.58 26.86-0.94L26.86-0.94Q24.70-0.22 22.68 0L22.68 0L22.68-43.20Q24.70-42.98 26.86-42.26L26.86-42.26Q28.73-41.62 31.00-40.39Q33.26-39.17 35.35-37.01L35.35-37.01Q37.87-34.49 39.24-31.75Q40.61-29.02 41.18-26.50L41.18-26.50L36.29-21.60ZM28.15-35.78L28.15-24.34L31.32-24.34L34.99-28.01Q33.98-30.53 32.22-32.44Q30.46-34.34 28.15-35.78L28.15-35.78ZM31.54-10.08L31.54-10.08Q32.83-11.38 33.66-12.67Q34.49-13.97 34.99-15.19L34.99-15.19L31.32-18.86L28.15-18.86L28.15-7.49Q28.73-7.85 29.30-8.28L29.30-8.28Q29.81-8.64 30.38-9.07Q30.96-9.50 31.54-10.08Z"></path></svg></g></g><mask id="089a294c-3ddc-48eb-a180-783dd34e93cf"><g fill="white"><svg xmlns="http://www.w3.org/2000/svg" xmlns:xlink="http://www.w3.org/1999/xlink" xml:space="preserve" version="1.1" style="shape-rendering: geometricprecision; text-rendering: geometricprecision; overflow: visible;" viewBox="146 139.5 525 590" x="0" y="0" fill-rule="evenodd" clip-rule="evenodd" width="60" height="67.42860995920569" filtersec="colorsf4096081271"><g transform="scale(1, 1) skewX(0)"><defs></defs><g><path d="M437 147l206 120c18,10 28,28 28,48l0 239c0,21 -10,38 -28,49l-206 119c-18,10 -39,10 -56,0l-207 -119c-18,-11 -28,-28 -28,-49l0 -239c0,-20 10,-38 28,-48l207 -120c17,-10 38,-10 56,0z"></path></g></g></svg></g> <g fill="black"><svg xmlns="http://www.w3.org/2000/svg" xmlns:xlink="http://www.w3.org/1999/xlink" viewBox="0 0 41.184000000000005 43.2" width="41" height="46.07622" x="9.5" y="10.676194979602844" class="image-svg-letter"><path transform="translate(0 43.2)" d="M13.61-1.44L13.61-14.40L9.14-18.86L5.69-18.86Q5.83-17.93 6.19-16.85L6.19-16.85Q6.48-15.84 7.02-14.65Q7.56-13.46 8.42-12.17L8.42-12.17L4.54-8.28Q1.73-11.88 0.86-15.37Q0-18.86 0-21.60L0-21.60Q0-23.18 0.29-25.09Q0.58-27.00 1.30-29.02Q2.02-31.03 3.28-33.08Q4.54-35.14 6.41-37.01L6.41-37.01Q8.50-39.17 10.73-40.39Q12.96-41.62 14.83-42.26L14.83-42.26Q16.99-42.98 19.08-43.20L19.08-43.20L19.08-26.42L14.26-21.60L19.08-16.70L19.08 0Q18.36-0.07 17.50-0.22L17.50-0.22Q16.78-0.36 15.80-0.65Q14.83-0.94 13.61-1.44L13.61-1.44ZM5.69-24.34L9.14-24.34L13.61-28.80L13.61-35.71Q13.03-35.35 12.46-34.99L12.46-34.99Q11.95-34.63 11.38-34.16Q10.80-33.70 10.22-33.12L10.22-33.12Q8.71-31.61 7.81-30.06Q6.91-28.51 6.48-27.22L6.48-27.22Q5.90-25.70 5.69-24.34L5.69-24.34ZM36.29-21.60L41.18-16.63Q40.61-14.11 39.28-11.45Q37.94-8.78 35.35-6.19L35.35-6.19Q33.19-4.03 30.96-2.81Q28.73-1.58 26.86-0.94L26.86-0.94Q24.70-0.22 22.68 0L22.68 0L22.68-43.20Q24.70-42.98 26.86-42.26L26.86-42.26Q28.73-41.62 31.00-40.39Q33.26-39.17 35.35-37.01L35.35-37.01Q37.87-34.49 39.24-31.75Q40.61-29.02 41.18-26.50L41.18-26.50L36.29-21.60ZM28.15-35.78L28.15-24.34L31.32-24.34L34.99-28.01Q33.98-30.53 32.22-32.44Q30.46-34.34 28.15-35.78L28.15-35.78ZM31.54-10.08L31.54-10.08Q32.83-11.38 33.66-12.67Q34.49-13.97 34.99-15.19L34.99-15.19L31.32-18.86L28.15-18.86L28.15-7.49Q28.73-7.85 29.30-8.28L29.30-8.28Q29.81-8.64 30.38-9.07Q30.96-9.50 31.54-10.08Z"></path></svg></g></mask></svg> <defs><filter id="colors6655742320"><feColorMatrix type="matrix" values="0 0 0 0 0.984375  0 0 0 0 0.2265625  0 0 0 0 0.26171875  0 0 0 1 0" class="icon-fecolormatrix"></feColorMatrix></filter> <filter id="colorsf4096081271"><feColorMatrix type="matrix" values="0 0 0 0 0.99609375  0 0 0 0 0.99609375  0 0 0 0 0.99609375  0 0 0 1 0" class="icon-fecolormatrix"></feColorMatrix></filter> <filter id="colorsb5216211412"><feColorMatrix type="matrix" values="0 0 0 0 0  0 0 0 0 0  0 0 0 0 0  0 0 0 1 0" class="icon-fecolormatrix"></feColorMatrix></filter></defs><rect v-gra="id" width="141.02098083496094" height="141.02098083496094" transform="translate(-6, -6)" style="pointer-events:none;" fill="url(#DnL7-b7IQCU6MI715OJeK)"></rect></g> <g transform="translate(63.92049038410187,102.02098083496094)"><g data-gra="path-name" fill-rule="" class="tp-name iconsvg-namesvg"><g transform="scale(1)"><g><path d="M0.6-0.47L0.6-0.47Q0.6-0.43 0.59-0.4 0.58-0.37 0.57-0.34 0.56-0.32 0.53-0.3 0.51-0.27 0.48-0.25L0.48-0.25 0.6-0.05 0.38 0 0.3-0.21 0.24-0.21 0.23-0.01 0.02-0.01Q0.02-0.12 0.03-0.23 0.03-0.34 0.03-0.45L0.03-0.45Q0.03-0.51 0.03-0.56 0.03-0.62 0.04-0.67L0.04-0.67Q0.07-0.69 0.1-0.69 0.14-0.7 0.17-0.71 0.2-0.71 0.24-0.71 0.27-0.72 0.31-0.72L0.31-0.72Q0.36-0.72 0.42-0.7 0.47-0.69 0.51-0.65 0.55-0.62 0.57-0.58 0.6-0.53 0.6-0.47ZM0.38-0.46L0.38-0.46Q0.38-0.48 0.37-0.49 0.37-0.51 0.36-0.52 0.35-0.53 0.33-0.54 0.31-0.55 0.29-0.55L0.29-0.55Q0.28-0.55 0.27-0.55 0.26-0.55 0.25-0.54L0.25-0.54 0.25-0.36 0.26-0.36Q0.28-0.36 0.3-0.37 0.32-0.37 0.34-0.38 0.36-0.4 0.37-0.41 0.38-0.43 0.38-0.46ZM1.2-0.17L1.2-0.17Q1.2-0.13 1.18-0.1 1.17-0.07 1.14-0.05 1.12-0.03 1.09-0.02 1.05-0.01 1.02 0 0.98 0.01 0.95 0.01 0.91 0.01 0.88 0.01L0.88 0.01Q0.85 0.01 0.82 0.01 0.79 0.01 0.76 0 0.72 0 0.69-0.01 0.66-0.02 0.63-0.04L0.63-0.04 0.63-0.66Q0.66-0.68 0.69-0.68 0.72-0.69 0.75-0.7 0.78-0.71 0.82-0.71 0.85-0.71 0.88-0.71L0.88-0.71Q0.91-0.71 0.95-0.71 0.98-0.7 1.02-0.69 1.05-0.68 1.08-0.67 1.11-0.65 1.13-0.63 1.15-0.6 1.16-0.57 1.17-0.54 1.17-0.5L1.17-0.5Q1.17-0.47 1.16-0.45 1.16-0.42 1.14-0.4 1.13-0.38 1.11-0.37 1.08-0.36 1.06-0.35L1.06-0.35Q1.09-0.34 1.12-0.33 1.14-0.31 1.16-0.29 1.18-0.26 1.19-0.24 1.2-0.21 1.2-0.17ZM0.95-0.45L0.95-0.45Q0.95-0.47 0.95-0.48 0.94-0.49 0.93-0.49 0.92-0.5 0.91-0.5 0.9-0.5 0.89-0.5L0.89-0.5Q0.88-0.5 0.88-0.5 0.87-0.5 0.86-0.5L0.86-0.5 0.85-0.39Q0.87-0.39 0.88-0.39 0.9-0.39 0.91-0.4 0.93-0.4 0.94-0.42 0.95-0.43 0.95-0.45ZM0.88-0.29L0.88-0.29Q0.87-0.29 0.85-0.29L0.85-0.29 0.85-0.18Q0.86-0.18 0.87-0.18 0.87-0.17 0.88-0.17L0.88-0.17Q0.89-0.17 0.9-0.18 0.92-0.18 0.93-0.19 0.94-0.19 0.94-0.2 0.95-0.21 0.95-0.23L0.95-0.23Q0.95-0.25 0.94-0.26 0.94-0.28 0.93-0.28 0.92-0.29 0.9-0.29 0.89-0.29 0.88-0.29Z" transform="translate(-0.020000001415610313, 0.7199999690055847)"></path></g> <!----> <!----> <!----> <!----> <!----> <!----> <!----></g></g> <!----></g></g><defs v-gra="od"></defs><defs v-gra="id"><filter id="4691e396-1456-4646-a55c-e04bc84b900b" filterUnits="userSpaceOnUse"><feColorMatrix type="matrix" values="0 0 0 0 0.99609375  0 0 0 0 0.99609375  0 0 0 0 0.99609375  0 0 0 1 0"></feColorMatrix></filter><linearGradient x1="0" y1="1" x2="0" y2="0" id="DnL7-b7IQCU6MI715OJeK"><stop offset="0%" stop-color="#ff0844"></stop><stop offset="100%" stop-color="#ffb199"></stop></linearGradient><filter id="42443b3f1de60f6b6fd3b6a9844b4764" filterUnits="objectBoundingBox"><feColorMatrix type="matrix" values="0 0 0 0 0.99609375  0 0 0 0 0.99609375  0 0 0 0 0.99609375  0 0 0 1 0"></feColorMatrix></filter></defs><mask v-gra="im" id="43601e43-6d77-4972-85de-228d78700847"><g fill="#fc3a43" class="iconsvg-imagesvg icon_container" filter="url(#4691e396-1456-4646-a55c-e04bc84b900b)"><rect fill="#0a0619" fill-opacity="0" stroke-width="2" x="0" y="0" width="129.020979020979" height="129.020979020979" class="image-rect"></rect> <svg viewBox="0 0 60 67.42860995920569" x="0" y="0" width="129.020979020979" height="129.020979020979" class="image-svg-svg bn" style="overflow: visible;"><g hollow-target="iconBnFill" mask="url(#089a294c-3ddc-48eb-a180-783dd34e93cf)"><g><svg fill="#000000" xmlns="http://www.w3.org/2000/svg" xmlns:xlink="http://www.w3.org/1999/xlink" xml:space="preserve" version="1.1" style="shape-rendering: geometricprecision; text-rendering: geometricprecision; overflow: visible;" viewBox="146 139.5 525 590" x="0" y="0" fill-rule="evenodd" clip-rule="evenodd" width="60" height="67.42860995920569" filtersec="colorsf4096081271"><g transform="scale(1, 1) skewX(0)"><defs><filter id="H3jiNtF8zN5u243PYQJSN"><feColorMatrix type="matrix" values="0 0 0 0 0.984375  0 0 0 0 0.2265625  0 0 0 0 0.26171875  0 0 0 1 0"></feColorMatrix></filter></defs><g><path class="fil0" d="M437 147l206 120c18,10 28,28 28,48l0 239c0,21 -10,38 -28,49l-206 119c-18,10 -39,10 -56,0l-207 -119c-18,-11 -28,-28 -28,-49l0 -239c0,-20 10,-38 28,-48l207 -120c17,-10 38,-10 56,0z"></path></g></g></svg></g> <g><svg xmlns="http://www.w3.org/2000/svg" xmlns:xlink="http://www.w3.org/1999/xlink" viewBox="0 0 41.184000000000005 43.2" width="41" height="46.07622" x="9.5" y="10.676194979602844" class="image-svg-letter"><path transform="translate(0 43.2)" d="M13.61-1.44L13.61-14.40L9.14-18.86L5.69-18.86Q5.83-17.93 6.19-16.85L6.19-16.85Q6.48-15.84 7.02-14.65Q7.56-13.46 8.42-12.17L8.42-12.17L4.54-8.28Q1.73-11.88 0.86-15.37Q0-18.86 0-21.60L0-21.60Q0-23.18 0.29-25.09Q0.58-27.00 1.30-29.02Q2.02-31.03 3.28-33.08Q4.54-35.14 6.41-37.01L6.41-37.01Q8.50-39.17 10.73-40.39Q12.96-41.62 14.83-42.26L14.83-42.26Q16.99-42.98 19.08-43.20L19.08-43.20L19.08-26.42L14.26-21.60L19.08-16.70L19.08 0Q18.36-0.07 17.50-0.22L17.50-0.22Q16.78-0.36 15.80-0.65Q14.83-0.94 13.61-1.44L13.61-1.44ZM5.69-24.34L9.14-24.34L13.61-28.80L13.61-35.71Q13.03-35.35 12.46-34.99L12.46-34.99Q11.95-34.63 11.38-34.16Q10.80-33.70 10.22-33.12L10.22-33.12Q8.71-31.61 7.81-30.06Q6.91-28.51 6.48-27.22L6.48-27.22Q5.90-25.70 5.69-24.34L5.69-24.34ZM36.29-21.60L41.18-16.63Q40.61-14.11 39.28-11.45Q37.94-8.78 35.35-6.19L35.35-6.19Q33.19-4.03 30.96-2.81Q28.73-1.58 26.86-0.94L26.86-0.94Q24.70-0.22 22.68 0L22.68 0L22.68-43.20Q24.70-42.98 26.86-42.26L26.86-42.26Q28.73-41.62 31.00-40.39Q33.26-39.17 35.35-37.01L35.35-37.01Q37.87-34.49 39.24-31.75Q40.61-29.02 41.18-26.50L41.18-26.50L36.29-21.60ZM28.15-35.78L28.15-24.34L31.32-24.34L34.99-28.01Q33.98-30.53 32.22-32.44Q30.46-34.34 28.15-35.78L28.15-35.78ZM31.54-10.08L31.54-10.08Q32.83-11.38 33.66-12.67Q34.49-13.97 34.99-15.19L34.99-15.19L31.32-18.86L28.15-18.86L28.15-7.49Q28.73-7.85 29.30-8.28L29.30-8.28Q29.81-8.64 30.38-9.07Q30.96-9.50 31.54-10.08Z"></path></svg></g></g><mask id="089a294c-3ddc-48eb-a180-783dd34e93cf"><g fill="white"><svg xmlns="http://www.w3.org/2000/svg" xmlns:xlink="http://www.w3.org/1999/xlink" xml:space="preserve" version="1.1" style="shape-rendering: geometricprecision; text-rendering: geometricprecision; overflow: visible;" viewBox="146 139.5 525 590" x="0" y="0" fill-rule="evenodd" clip-rule="evenodd" width="60" height="67.42860995920569" filtersec="colorsf4096081271"><g transform="scale(1, 1) skewX(0)"><defs></defs><g><path d="M437 147l206 120c18,10 28,28 28,48l0 239c0,21 -10,38 -28,49l-206 119c-18,10 -39,10 -56,0l-207 -119c-18,-11 -28,-28 -28,-49l0 -239c0,-20 10,-38 28,-48l207 -120c17,-10 38,-10 56,0z"></path></g></g></svg></g> <g fill="black"><svg xmlns="http://www.w3.org/2000/svg" xmlns:xlink="http://www.w3.org/1999/xlink" viewBox="0 0 41.184000000000005 43.2" width="41" height="46.07622" x="9.5" y="10.676194979602844" class="image-svg-letter"><path transform="translate(0 43.2)" d="M13.61-1.44L13.61-14.40L9.14-18.86L5.69-18.86Q5.83-17.93 6.19-16.85L6.19-16.85Q6.48-15.84 7.02-14.65Q7.56-13.46 8.42-12.17L8.42-12.17L4.54-8.28Q1.73-11.88 0.86-15.37Q0-18.86 0-21.60L0-21.60Q0-23.18 0.29-25.09Q0.58-27.00 1.30-29.02Q2.02-31.03 3.28-33.08Q4.54-35.14 6.41-37.01L6.41-37.01Q8.50-39.17 10.73-40.39Q12.96-41.62 14.83-42.26L14.83-42.26Q16.99-42.98 19.08-43.20L19.08-43.20L19.08-26.42L14.26-21.60L19.08-16.70L19.08 0Q18.36-0.07 17.50-0.22L17.50-0.22Q16.78-0.36 15.80-0.65Q14.83-0.94 13.61-1.44L13.61-1.44ZM5.69-24.34L9.14-24.34L13.61-28.80L13.61-35.71Q13.03-35.35 12.46-34.99L12.46-34.99Q11.95-34.63 11.38-34.16Q10.80-33.70 10.22-33.12L10.22-33.12Q8.71-31.61 7.81-30.06Q6.91-28.51 6.48-27.22L6.48-27.22Q5.90-25.70 5.69-24.34L5.69-24.34ZM36.29-21.60L41.18-16.63Q40.61-14.11 39.28-11.45Q37.94-8.78 35.35-6.19L35.35-6.19Q33.19-4.03 30.96-2.81Q28.73-1.58 26.86-0.94L26.86-0.94Q24.70-0.22 22.68 0L22.68 0L22.68-43.20Q24.70-42.98 26.86-42.26L26.86-42.26Q28.73-41.62 31.00-40.39Q33.26-39.17 35.35-37.01L35.35-37.01Q37.87-34.49 39.24-31.75Q40.61-29.02 41.18-26.50L41.18-26.50L36.29-21.60ZM28.15-35.78L28.15-24.34L31.32-24.34L34.99-28.01Q33.98-30.53 32.22-32.44Q30.46-34.34 28.15-35.78L28.15-35.78ZM31.54-10.08L31.54-10.08Q32.83-11.38 33.66-12.67Q34.49-13.97 34.99-15.19L34.99-15.19L31.32-18.86L28.15-18.86L28.15-7.49Q28.73-7.85 29.30-8.28L29.30-8.28Q29.81-8.64 30.38-9.07Q30.96-9.50 31.54-10.08Z"></path></svg></g></mask></svg> <defs><filter id="colors6655742320"><feColorMatrix type="matrix" values="0 0 0 0 0.984375  0 0 0 0 0.2265625  0 0 0 0 0.26171875  0 0 0 1 0" class="icon-fecolormatrix"></feColorMatrix></filter> <filter id="colorsf4096081271"><feColorMatrix type="matrix" values="0 0 0 0 0.99609375  0 0 0 0 0.99609375  0 0 0 0 0.99609375  0 0 0 1 0" class="icon-fecolormatrix"></feColorMatrix></filter> <filter id="colorsb5216211412"><feColorMatrix type="matrix" values="0 0 0 0 0  0 0 0 0 0  0 0 0 0 0  0 0 0 1 0" class="icon-fecolormatrix"></feColorMatrix></filter></defs></g></mask></svg>